<?xml version="1.0" encoding="UTF-8"?> <svg xmlns="http://www.w3.org/2000/svg" width="1571" height="718" viewBox="0 0 1571 718" fill="none"> <g filter="url(#filter0_ddi_71_440)"> <path d="M135.727 130.425C134.81 128.414 132.437 127.526 130.425 128.443C128.414 129.36 127.526 131.733 128.443 133.745L135.727 130.425ZM1442.91 480.632C1443.08 478.428 1441.44 476.497 1439.24 476.317L1403.34 473.389C1401.13 473.21 1399.2 474.85 1399.02 477.053C1398.84 479.256 1400.48 481.188 1402.69 481.368L1434.6 483.97L1432 515.885C1431.82 518.088 1433.46 520.02 1435.66 520.199C1437.87 520.379 1439.8 518.739 1439.98 516.535L1442.91 480.632ZM128.443 133.745C232.288 361.6 497.499 502.63 767.407 560.02C902.484 588.741 1039.06 596.595 1157.76 583.818C1276.35 571.052 1377.59 537.637 1441.51 483.357L1436.32 477.255C1374.16 530.044 1274.78 563.171 1156.9 575.859C1039.14 588.535 903.416 580.755 769.072 552.19C500.137 495.007 238.013 354.858 135.727 130.425L128.443 133.745Z" fill="#FF0027"></path> </g> <defs> <filter id="filter0_ddi_71_440" x="0" y="0" width="1571" height="717.827" filterUnits="userSpaceOnUse" color-interpolation-filters="sRGB"> <feFlood flood-opacity="0" result="BackgroundImageFix"></feFlood> <feColorMatrix in="SourceAlpha" type="matrix" values="0 0 0 0 0 0 0 0 0 0 0 0 0 0 0 0 0 0 127 0" result="hardAlpha"></feColorMatrix> <feOffset></feOffset> <feGaussianBlur stdDeviation="16"></feGaussianBlur> <feComposite in2="hardAlpha" operator="out"></feComposite> <feColorMatrix type="matrix" values="0 0 0 0 1 0 0 0 0 0 0 0 0 0 0.152941 0 0 0 0.5 0"></feColorMatrix> <feBlend mode="normal" in2="BackgroundImageFix" result="effect1_dropShadow_71_440"></feBlend> <feColorMatrix in="SourceAlpha" type="matrix" values="0 0 0 0 0 0 0 0 0 0 0 0 0 0 0 0 0 0 127 0" result="hardAlpha"></feColorMatrix> <feOffset></feOffset> <feGaussianBlur stdDeviation="13"></feGaussianBlur> <feComposite in2="hardAlpha" operator="out"></feComposite> <feColorMatrix type="matrix" values="0 0 0 0 0 0 0 0 0 0.752941 0 0 0 0 1 0 0 0 0.18 0"></feColorMatrix> <feBlend mode="normal" in2="effect1_dropShadow_71_440" result="effect2_dropShadow_71_440"></feBlend> <feBlend mode="normal" in="SourceGraphic" in2="effect2_dropShadow_71_440" result="shape"></feBlend> <feColorMatrix in="SourceAlpha" type="matrix" values="0 0 0 0 0 0 0 0 0 0 0 0 0 0 0 0 0 0 127 0" result="hardAlpha"></feColorMatrix> <feOffset></feOffset> <feGaussianBlur stdDeviation="1"></feGaussianBlur> <feComposite in2="hardAlpha" operator="arithmetic" k2="-1" k3="1"></feComposite> <feColorMatrix type="matrix" values="0 0 0 0 1 0 0 0 0 1 0 0 0 0 1 0 0 0 0.5 0"></feColorMatrix> <feBlend mode="normal" in2="shape" result="effect3_innerShadow_71_440"></feBlend> </filter> </defs> </svg> 