<?xml version="1.0" encoding="UTF-8"?> <svg xmlns="http://www.w3.org/2000/svg" width="921" height="513" viewBox="0 0 921 513" fill="none"> <g filter="url(#filter0_d_71_9137)"> <path d="M296.312 80.0343V192.082H264.619V148.384H221.4V192.082H189.707V80.0343H221.4V122.132H264.619V80.0343H296.312ZM397.701 170.313H350.321L341.517 192.082H309.183L358.644 80.0343H389.858L439.479 192.082H406.505L397.701 170.313ZM388.417 146.943L374.011 111.088L359.605 146.943H388.417ZM604.225 80.0343V192.082H452.319V80.0343H483.533V166.952H512.825V80.0343H544.039V166.952H573.011V80.0343H604.225ZM628.176 80.0343H659.389V145.823L705.649 80.0343H735.422V192.082H704.209V126.454L658.109 192.082H628.176V80.0343Z" fill="white"></path> </g> <g filter="url(#filter1_d_71_9137)"> <path d="M145.189 368.702H127.902V420.18H90.0615V285.723H127.902V337.969H146.15L178.227 285.723H218.181L176.114 350.646L218.565 420.18H175.73L145.189 368.702ZM338.715 390.792V420.18H230.765V285.723H336.218V315.111H268.413V337.777H328.151V366.205H268.413V390.792H338.715ZM360.383 285.723H397.839V364.669L453.351 285.723H489.078V420.18H451.622V341.427L396.302 420.18H360.383V285.723ZM424.539 277.655C410.965 277.655 400.976 275.03 394.574 269.78C388.299 264.53 385.162 256.718 385.162 246.346H410.709C410.837 250.828 411.989 254.157 414.166 256.334C416.343 258.511 419.801 259.599 424.539 259.599C429.277 259.599 432.798 258.511 435.103 256.334C437.408 254.157 438.625 250.828 438.753 246.346H464.3C464.3 256.718 461.098 264.53 454.696 269.78C448.293 275.03 438.24 277.655 424.539 277.655ZM583.451 422.869C569.365 422.869 556.687 419.924 545.418 414.034C534.278 408.015 525.506 399.692 519.103 389.063C512.7 378.434 509.499 366.397 509.499 352.951C509.499 339.506 512.7 327.469 519.103 316.84C525.506 306.211 534.278 297.952 545.418 292.061C556.687 286.043 569.365 283.033 583.451 283.033C595.744 283.033 606.821 285.21 616.681 289.564C626.541 293.918 634.737 300.193 641.268 308.388L617.065 330.286C608.357 319.785 597.793 314.535 585.372 314.535C578.072 314.535 571.542 316.136 565.779 319.337C560.145 322.538 555.727 327.084 552.526 332.975C549.452 338.737 547.916 345.396 547.916 352.951C547.916 360.507 549.452 367.23 552.526 373.12C555.727 378.883 560.145 383.365 565.779 386.566C571.542 389.767 578.072 391.368 585.372 391.368C597.793 391.368 608.357 386.118 617.065 375.617L641.268 397.515C634.737 405.71 626.541 411.985 616.681 416.339C606.821 420.693 595.744 422.869 583.451 422.869ZM727.022 328.557C743.541 328.557 756.282 332.271 765.246 339.698C774.21 346.997 778.692 357.882 778.692 372.352C778.692 387.846 773.698 399.692 763.71 407.887C753.721 416.083 739.827 420.18 722.028 420.18H658.448V285.723H695.905V328.557H727.022ZM719.531 392.905C725.933 392.905 730.992 391.176 734.705 387.718C738.547 384.261 740.468 379.395 740.468 373.12C740.468 361.467 733.489 355.641 719.531 355.641H695.905V392.905H719.531ZM793.482 285.723H830.938V420.18H793.482V285.723Z" fill="url(#paint0_linear_71_9137)"></path> </g> <defs> <filter id="filter0_d_71_9137" x="109.672" y="0" width="705.784" height="272.117" filterUnits="userSpaceOnUse" color-interpolation-filters="sRGB"> <feFlood flood-opacity="0" result="BackgroundImageFix"></feFlood> <feColorMatrix in="SourceAlpha" type="matrix" values="0 0 0 0 0 0 0 0 0 0 0 0 0 0 0 0 0 0 127 0" result="hardAlpha"></feColorMatrix> <feOffset></feOffset> <feGaussianBlur stdDeviation="10"></feGaussianBlur> <feComposite in2="hardAlpha" operator="out"></feComposite> <feColorMatrix type="matrix" values="0 0 0 0 1 0 0 0 0 1 0 0 0 0 1 0 0 0 0.5 0"></feColorMatrix> <feBlend mode="normal" in2="BackgroundImageFix" result="effect1_dropShadow_71_9137"></feBlend> <feBlend mode="normal" in="SourceGraphic" in2="effect1_dropShadow_71_9137" result="shape"></feBlend> </filter> <filter id="filter1_d_71_9137" x="0.000167919" y="156.285" width="921" height="356.646" filterUnits="userSpaceOnUse" color-interpolation-filters="sRGB"> <feFlood flood-opacity="0" result="BackgroundImageFix"></feFlood> <feColorMatrix in="SourceAlpha" type="matrix" values="0 0 0 0 0 0 0 0 0 0 0 0 0 0 0 0 0 0 127 0" result="hardAlpha"></feColorMatrix> <feOffset></feOffset> <feGaussianBlur stdDeviation="11.2528"></feGaussianBlur> <feComposite in2="hardAlpha" operator="out"></feComposite> <feColorMatrix type="matrix" values="0 0 0 0 1 0 0 0 0 0.205833 0 0 0 0 0.205833 0 0 0 0.19 0"></feColorMatrix> <feBlend mode="normal" in2="BackgroundImageFix" result="effect1_dropShadow_71_9137"></feBlend> <feBlend mode="normal" in="SourceGraphic" in2="effect1_dropShadow_71_9137" result="shape"></feBlend> </filter> <linearGradient id="paint0_linear_71_9137" x1="462.589" y1="269.936" x2="462.589" y2="451.553" gradientUnits="userSpaceOnUse"> <stop stop-color="#FF3434"></stop> <stop offset="1" stop-color="#CA0016"></stop> </linearGradient> </defs> </svg> 