<?xml version="1.0" encoding="UTF-8"?> <svg xmlns="http://www.w3.org/2000/svg" width="1461" height="278" viewBox="0 0 1461 278" fill="none"> <g filter="url(#filter0_d_71_5886)"> <path d="M141.601 196.481C129.867 196.481 119.307 194.028 109.92 189.121C100.64 184.108 93.3337 177.174 88.0003 168.321C82.667 159.467 80.0003 149.441 80.0003 138.241C80.0003 127.041 82.667 117.014 88.0003 108.161C93.3337 99.3072 100.64 92.4272 109.92 87.5205C119.307 82.5072 129.867 80.0005 141.601 80.0005C151.841 80.0005 161.067 81.8138 169.281 85.4405C177.494 89.0672 184.321 94.2939 189.761 101.121L169.601 119.361C162.347 110.614 153.547 106.241 143.201 106.241C137.121 106.241 131.68 107.574 126.88 110.241C122.187 112.907 118.507 116.694 115.84 121.601C113.28 126.401 112 131.947 112 138.241C112 144.534 113.28 150.134 115.84 155.041C118.507 159.841 122.187 163.574 126.88 166.241C131.68 168.907 137.121 170.241 143.201 170.241C153.547 170.241 162.347 165.867 169.601 157.121L189.761 175.361C184.321 182.188 177.494 187.414 169.281 191.041C161.067 194.668 151.841 196.481 141.601 196.481ZM309.192 82.2405V194.241H277.832V107.361H235.272V194.241H204.072V82.2405H309.192ZM423.055 169.761V194.241H333.135V82.2405H420.975V106.721H364.495V125.601H414.255V149.281H364.495V169.761H423.055ZM486.384 151.361H471.984V194.241H440.464V82.2405H471.984V125.761H487.184L513.904 82.2405H547.184L512.144 136.321L547.504 194.241H511.824L486.384 151.361ZM646.501 107.361H612.261V194.241H581.061V107.361H546.661V82.2405H646.501V107.361ZM712.305 82.2405C722.438 82.2405 731.238 83.9472 738.705 87.3605C746.172 90.6672 751.932 95.4672 755.985 101.761C760.038 107.947 762.065 115.254 762.065 123.681C762.065 132.107 760.038 139.414 755.985 145.601C751.932 151.787 746.172 156.587 738.705 160.001C731.238 163.307 722.438 164.961 712.305 164.961H692.785V194.241H661.105V82.2405H712.305ZM710.385 140.001C716.892 140.001 721.798 138.614 725.105 135.841C728.412 132.961 730.065 128.907 730.065 123.681C730.065 118.454 728.412 114.401 725.105 111.521C721.798 108.641 716.892 107.201 710.385 107.201H692.785V140.001H710.385ZM930.943 82.2405L884.543 168.801C879.636 178.081 873.61 185.121 866.463 189.921C859.423 194.721 851.69 197.121 843.263 197.121C837.076 197.121 830.463 195.734 823.423 192.961L830.943 169.601C835.316 170.881 839.05 171.521 842.143 171.521C845.236 171.521 847.956 170.827 850.303 169.441C852.756 168.054 854.996 165.867 857.023 162.881L813.503 82.2405H846.943L873.023 136.321L900.063 82.2405H930.943ZM994.103 196.481C982.37 196.481 971.81 194.028 962.423 189.121C953.143 184.108 945.837 177.174 940.503 168.321C935.17 159.467 932.503 149.441 932.503 138.241C932.503 127.041 935.17 117.014 940.503 108.161C945.837 99.3072 953.143 92.4272 962.423 87.5205C971.81 82.5072 982.37 80.0005 994.103 80.0005C1004.34 80.0005 1013.57 81.8138 1021.78 85.4405C1030 89.0672 1036.82 94.2939 1042.26 101.121L1022.1 119.361C1014.85 110.614 1006.05 106.241 995.703 106.241C989.623 106.241 984.183 107.574 979.383 110.241C974.69 112.907 971.01 116.694 968.343 121.601C965.783 126.401 964.503 131.947 964.503 138.241C964.503 144.534 965.783 150.134 968.343 155.041C971.01 159.841 974.69 163.574 979.383 166.241C984.183 168.907 989.623 170.241 995.703 170.241C1006.05 170.241 1014.85 165.867 1022.1 157.121L1042.26 175.361C1036.82 182.188 1030 187.414 1021.78 191.041C1013.57 194.668 1004.34 196.481 994.103 196.481ZM1158.4 82.2405V194.241H1127.2V107.361H1095.04L1094.4 125.601C1093.87 141.601 1092.53 154.614 1090.4 164.641C1088.37 174.667 1084.85 182.454 1079.84 188.001C1074.83 193.441 1067.73 196.161 1058.56 196.161C1054.29 196.161 1049.49 195.521 1044.16 194.241L1045.92 168.321C1047.31 168.641 1048.75 168.801 1050.24 168.801C1054.4 168.801 1057.6 167.147 1059.84 163.841C1062.08 160.534 1063.68 155.947 1064.64 150.081C1065.6 144.107 1066.24 136.374 1066.56 126.881L1068.16 82.2405H1158.4ZM1288.76 82.2405L1242.36 168.801C1237.45 178.081 1231.42 185.121 1224.28 189.921C1217.24 194.721 1209.5 197.121 1201.08 197.121C1194.89 197.121 1188.28 195.734 1181.24 192.961L1188.76 169.601C1193.13 170.881 1196.86 171.521 1199.96 171.521C1203.05 171.521 1205.77 170.827 1208.12 169.441C1210.57 168.054 1212.81 165.867 1214.84 162.881L1171.32 82.2405H1204.76L1230.84 136.321L1257.88 82.2405H1288.76ZM1380.84 107.361H1330.12V194.241H1298.92V82.2405H1381L1380.84 107.361Z" fill="white"></path> </g> <defs> <filter id="filter0_d_71_5886" x="0" y="0" width="1461" height="277.122" filterUnits="userSpaceOnUse" color-interpolation-filters="sRGB"> <feFlood flood-opacity="0" result="BackgroundImageFix"></feFlood> <feColorMatrix in="SourceAlpha" type="matrix" values="0 0 0 0 0 0 0 0 0 0 0 0 0 0 0 0 0 0 127 0" result="hardAlpha"></feColorMatrix> <feOffset></feOffset> <feGaussianBlur stdDeviation="10"></feGaussianBlur> <feComposite in2="hardAlpha" operator="out"></feComposite> <feColorMatrix type="matrix" values="0 0 0 0 1 0 0 0 0 1 0 0 0 0 1 0 0 0 0.5 0"></feColorMatrix> <feBlend mode="normal" in2="BackgroundImageFix" result="effect1_dropShadow_71_5886"></feBlend> <feBlend mode="normal" in="SourceGraphic" in2="effect1_dropShadow_71_5886" result="shape"></feBlend> </filter> </defs> </svg> 