<?xml version="1.0" encoding="UTF-8"?> <svg xmlns="http://www.w3.org/2000/svg" width="180" height="180" viewBox="0 0 180 180" fill="none"> <path opacity="0.5" d="M138.478 31.578C135.073 25.0154 135.978 16.8992 141.5 11.4233C149.138 3.85101 163.107 4.8853 173.546 0.381792C176.776 -1.01145 180.334 1.60347 179.975 5.06671C178.28 21.4042 174.13 31.5168 168.398 37.2659C165.14 40.5337 160.494 42.3003 155.739 42.1878C153.505 42.1351 151.247 41.6735 149.097 40.8466L58.4096 131.535C57.0364 132.908 55.2368 133.594 53.4375 133.594C51.6382 133.594 49.8385 132.908 48.4653 131.535C45.7196 128.789 45.7196 124.337 48.4653 121.591L138.478 31.578ZM173.521 56.8033C172.078 53.198 167.987 51.4438 164.381 52.8855C160.775 54.3276 159.021 58.4194 160.463 62.0251C164.096 71.1077 165.937 80.5197 165.937 90.0003C165.937 102.693 157.332 104.063 153.633 104.063C148.37 104.063 145.839 102.76 142.334 100.956C138.328 98.8945 133.341 96.3284 124.805 96.3284C116.573 96.3284 109.018 99.2847 103.531 104.653C97.979 110.085 94.9218 117.616 94.9218 125.86C94.9218 134.652 97.811 139.436 100.132 143.281C102.076 146.5 103.359 148.626 103.359 153.633C103.359 155.554 103.026 159.191 100.79 161.959C98.6575 164.599 95.0273 165.938 89.9999 165.938C48.1278 165.938 14.0625 131.872 14.0625 90.0003C14.0625 48.1282 48.1278 14.0628 89.9999 14.0628C98.0289 14.0628 106.477 15.5872 115.109 18.5938C118.777 19.8703 122.785 17.9332 124.062 14.266C125.339 10.5985 123.402 6.59038 119.734 5.31316C109.611 1.78804 99.6071 0.000346748 89.9999 0.000346748C65.9601 0.000346748 43.3592 9.3621 26.3601 26.3605C9.36175 43.3596 0 65.9605 0 90.0003C0 114.04 9.36175 136.641 26.3601 153.64C43.3592 170.638 65.9601 180 89.9999 180C101.815 180 108.338 174.994 111.73 170.795C115.4 166.25 117.422 160.155 117.422 153.633C117.422 144.709 114.511 139.887 112.171 136.013C110.252 132.835 108.984 130.735 108.984 125.86C108.984 116.752 115.49 110.391 124.805 110.391C129.935 110.391 132.437 111.678 135.9 113.46C139.938 115.539 144.964 118.125 153.633 118.125C157.4 118.125 164.658 117.324 170.942 111.959C175.074 108.431 180 101.758 180 90.0003C180 78.7232 177.82 67.5541 173.521 56.8033ZM28.125 92.4612C28.125 98.2768 32.8563 103.008 38.6718 103.008C44.4874 103.008 49.2187 98.2768 49.2187 92.4612C49.2187 86.6457 44.4874 81.9144 38.6718 81.9144C32.8563 81.9144 28.125 86.6457 28.125 92.4612ZM99.8437 38.6722C99.8437 32.8567 95.1124 28.1253 89.2968 28.1253C83.4813 28.1253 78.7499 32.8567 78.7499 38.6722C78.7499 44.4877 83.4813 49.2191 89.2968 49.2191C95.1124 49.2191 99.8437 44.4877 99.8437 38.6722ZM59.4931 63.0084C63.6071 58.8944 63.6071 52.2003 59.4931 48.086L59.4928 48.0856C55.3784 43.9716 48.684 43.9716 44.57 48.086C40.456 52.2 40.456 58.8944 44.5704 63.0087C46.627 65.0657 49.3291 66.0941 52.0312 66.0941C54.7337 66.0941 57.4361 65.0654 59.4931 63.0084Z" fill="url(#paint0_linear_71_6943)"></path> <defs> <linearGradient id="paint0_linear_71_6943" x1="-58.2353" y1="-0.70874" x2="218.654" y2="207.778" gradientUnits="userSpaceOnUse"> <stop stop-color="white"></stop> <stop offset="1" stop-color="white" stop-opacity="0.6"></stop> </linearGradient> </defs> </svg> 