<?xml version="1.0" encoding="UTF-8"?> <svg xmlns="http://www.w3.org/2000/svg" width="180" height="180" viewBox="0 0 180 180" fill="none"> <path opacity="0.5" d="M120.234 67.6332V63.4309C120.234 56.5631 114.664 50.9766 107.82 50.9766H71.4771C64.6326 50.9766 59.0625 56.5631 59.0625 63.4309V67.6332C59.0625 76.6132 67.7939 84.0056 74.1701 89.404C74.4022 89.6004 74.6301 89.794 74.8526 89.9821C74.6178 90.1826 74.3761 90.3873 74.1289 90.596C67.7541 95.9944 59.0227 103.387 59.0227 112.367V116.569C59.0227 116.958 59.0529 117.337 59.1133 117.706C59.6887 124.043 65.0143 129.023 71.4771 129.023H107.82C114.664 129.023 120.234 123.437 120.234 116.569V112.367C120.234 103.385 111.502 95.993 105.127 90.596C104.886 90.3928 104.652 90.1936 104.424 90C104.652 89.805 104.886 89.6072 105.127 89.404C111.502 84.007 120.234 76.6145 120.234 67.6332ZM106.172 112.367V114.961H73.0852V112.381C73.0852 112.368 73.2005 111.086 75.8318 108.154C77.9768 105.764 80.7605 103.409 83.2159 101.33C83.8531 100.79 84.4629 100.274 85.0383 99.7765C85.2086 99.6529 85.3734 99.521 85.5341 99.381C87.7368 97.4501 89.1788 94.8395 89.6484 92.0187C90.1181 94.8395 91.5601 97.4487 93.7642 99.381C94.4673 99.9976 95.2309 100.644 96.0397 101.328C98.4952 103.407 101.279 105.764 103.424 108.154C106.057 111.086 106.171 112.367 106.172 112.367ZM103.424 71.8465C101.279 74.236 98.4952 76.5926 96.0397 78.6717C95.2309 79.3556 94.4673 80.0024 93.7628 80.6204C91.5601 82.5513 90.1181 85.1605 89.6484 87.9813C89.1788 85.1591 87.7368 82.5499 85.5341 80.619C84.8296 80.0024 84.0646 79.3556 83.2558 78.6703C80.8003 76.5912 78.0167 74.236 75.873 71.8465C73.2404 68.9145 73.1264 67.6332 73.125 67.6332V65.0391H106.172V67.6195C106.171 67.6318 106.057 68.9131 103.424 71.8465ZM0 47.1094V30.2344C0 26.3507 3.14758 23.2031 7.03125 23.2031C10.9149 23.2031 14.0625 26.3507 14.0625 30.2344V41.6725C20.9811 30.8125 30.1685 21.5236 41.0779 14.4456C55.6458 4.99603 72.562 0 90 0C114.039 0 136.641 9.36172 153.64 26.3603C170.638 43.3589 180 65.9605 180 90C180 93.8837 176.852 97.0312 172.969 97.0312C169.085 97.0312 165.938 93.8837 165.938 90C165.938 48.1284 131.872 14.0625 90 14.0625C63.398 14.0625 38.7172 28.1799 25.0571 50.625H34.4531C38.3368 50.625 41.4844 53.7726 41.4844 57.6562C41.4844 61.5399 38.3368 64.6875 34.4531 64.6875H17.5781C7.88544 64.6875 0 56.8021 0 47.1094ZM180 132.891V149.414C180 153.298 176.852 156.445 172.969 156.445C169.085 156.445 165.938 153.298 165.938 149.414V137.775C158.98 148.874 149.664 158.357 138.571 165.554C124.003 175.004 107.086 180 89.6484 180C65.6227 180 43.0788 170.633 26.1694 153.625C9.29443 136.649 0 114.055 0 90C0 86.1163 3.14758 82.9688 7.03125 82.9688C10.9149 82.9688 14.0625 86.1163 14.0625 90C14.0625 131.872 47.9704 165.938 89.6484 165.938C116.249 165.938 140.931 151.82 154.591 129.375H145.195C141.312 129.375 138.164 126.227 138.164 122.344C138.164 118.46 141.312 115.312 145.195 115.312H162.422C172.115 115.312 180 123.198 180 132.891Z" fill="url(#paint0_linear_71_6936)"></path> <defs> <linearGradient id="paint0_linear_71_6936" x1="-58.2353" y1="-0.70874" x2="218.654" y2="207.778" gradientUnits="userSpaceOnUse"> <stop stop-color="white"></stop> <stop offset="1" stop-color="white" stop-opacity="0.6"></stop> </linearGradient> </defs> </svg> 