<?xml version="1.0" encoding="UTF-8"?> <svg xmlns="http://www.w3.org/2000/svg" width="180" height="180" viewBox="0 0 180 180" fill="none"> <path opacity="0.5" d="M58.3595 165.938H21.337C18.3363 165.938 16.525 164.262 15.7134 163.264C14.3098 161.539 13.7674 159.295 14.2233 157.104C21.5251 122.032 52.4763 96.4188 88.2079 95.5879C88.8026 95.6099 89.4 95.625 90.0001 95.625C90.5961 95.625 91.188 95.6099 91.7799 95.5879C101.063 95.8104 110.297 97.7728 119.251 101.431C122.846 102.899 126.951 101.176 128.419 97.5806C129.887 93.9867 128.164 89.8819 124.569 88.4125C122.561 87.5926 120.541 86.8483 118.508 86.1726C130.215 77.4495 137.813 63.5023 137.813 47.8125C137.813 21.4494 116.363 0 90.0001 0C63.6357 0 42.1876 21.4494 42.1876 47.8125C42.1876 63.4598 49.7435 77.3767 61.3986 86.104C50.7213 89.6182 40.7017 95.0853 31.9319 102.298C15.8548 115.523 4.67622 133.969 0.456103 154.238C-0.866375 160.59 0.718402 167.113 4.80257 172.135C8.8675 177.134 14.8935 180 21.337 180H58.3595C62.2432 180 65.3907 176.852 65.3907 172.969C65.3907 169.085 62.2432 165.938 58.3595 165.938ZM56.2501 47.8125C56.2501 29.203 71.3906 14.0625 90.0001 14.0625C108.61 14.0625 123.75 29.203 123.75 47.8125C123.75 65.8864 109.469 80.6863 91.5986 81.524C91.0658 81.5144 90.5329 81.5034 90.0001 81.5034C89.4508 81.5034 88.9001 81.5117 88.3521 81.5213C70.5049 80.6589 56.2501 65.8699 56.2501 47.8125ZM180 126.562V150.82C180 154.704 176.852 157.852 172.969 157.852C169.085 157.852 165.938 154.704 165.938 150.82V133.768L141.879 157.768C135.773 163.858 126.006 164.068 119.645 158.248L116.058 154.966C115.248 154.226 113.972 154.267 113.214 155.061L91.5794 177.814C90.1978 179.267 88.3425 180 86.4831 180C84.7431 180 83.0004 179.359 81.6395 178.064C78.8256 175.388 78.713 170.938 81.3896 168.124L103.034 145.36C105.97 142.287 109.911 140.522 114.143 140.379C118.376 140.239 122.426 141.732 125.55 144.591L129.137 147.873C129.941 148.608 131.175 148.582 131.947 147.811L156.774 123.047H139.219C135.335 123.047 132.188 119.899 132.188 116.016C132.188 112.132 135.335 108.984 139.219 108.984H162.422C172.115 108.984 180 116.87 180 126.562Z" fill="url(#paint0_linear_71_6910)"></path> <defs> <linearGradient id="paint0_linear_71_6910" x1="-58.2353" y1="-0.70874" x2="218.654" y2="207.778" gradientUnits="userSpaceOnUse"> <stop stop-color="white"></stop> <stop offset="1" stop-color="white" stop-opacity="0.6"></stop> </linearGradient> </defs> </svg> 