<?xml version="1.0" encoding="UTF-8"?> <svg xmlns="http://www.w3.org/2000/svg" width="180" height="180" viewBox="0 0 180 180" fill="none"> <path opacity="0.5" d="M180 90C180 93.8834 176.852 97.0312 172.969 97.0312H169.582C168.557 108.658 165.002 119.949 159.148 130.039C157.199 133.398 152.897 134.541 149.538 132.592C146.179 130.643 145.036 126.341 146.984 122.982C151.596 115.033 154.475 106.175 155.454 97.0316H152.883C149 97.0316 145.852 93.8837 145.852 90.0004C145.852 86.117 149 82.9691 152.883 82.9691H155.456C152.182 52.2745 127.725 27.8177 97.0312 24.544V27.1171C97.0312 31.0004 93.8834 34.1483 90 34.1483C86.1166 34.1483 82.9688 31.0004 82.9688 27.1171V24.544C52.2745 27.8177 27.8177 52.2745 24.544 82.9688H27.1171C31.0004 82.9688 34.1483 86.1166 34.1483 90C34.1483 93.8834 31.0004 97.0312 27.1171 97.0312H24.544C27.8177 127.725 52.2745 152.182 82.9688 155.456V152.883C82.9688 149 86.1166 145.852 90 145.852C93.8834 145.852 97.0312 149 97.0312 152.883V155.455C106.923 154.401 116.441 151.126 124.895 145.831C128.185 143.769 132.525 144.766 134.586 148.056C136.647 151.347 135.651 155.686 132.36 157.747C121.666 164.447 109.573 168.483 97.0309 169.584V172.969C97.0309 176.852 93.883 180 89.9996 180C86.1163 180 82.9684 176.852 82.9684 172.969V169.588C64.2814 167.97 46.9276 159.912 33.5078 146.492C20.0879 133.072 12.0301 115.718 10.4115 97.0312H7.03125C3.14789 97.0312 0 93.8834 0 90C0 86.1166 3.14789 82.9688 7.03125 82.9688H10.4115C12.0301 64.2818 20.0879 46.928 33.5081 33.5081C46.928 20.0879 64.2818 12.0301 82.9688 10.4115V7.03125C82.9688 3.14789 86.1166 0 90 0C93.8834 0 97.0312 3.14789 97.0312 7.03125V10.4115C115.718 12.0301 133.072 20.0879 146.492 33.5081C159.912 46.928 167.97 64.2818 169.588 82.9688H172.969C176.852 82.9688 180 86.1166 180 90ZM90 97.0045C76.7123 97.0045 65.9021 86.194 65.9021 72.9067C65.9021 59.6194 76.7127 48.8088 90 48.8088C103.287 48.8088 114.098 59.6194 114.098 72.9067C114.098 86.194 103.288 97.0045 90 97.0045ZM90 82.942C95.5336 82.942 100.035 78.4403 100.035 72.9067C100.035 67.3731 95.5336 62.871 90 62.871C84.4664 62.871 79.9646 67.3727 79.9646 72.9063C79.9646 78.4399 84.4664 82.942 90 82.942ZM62.6643 129.132C65.41 131.878 69.8618 131.878 72.6079 129.132C82.1978 119.542 97.8022 119.542 107.392 129.132C108.765 130.505 110.564 131.192 112.364 131.192C114.164 131.192 115.963 130.505 117.336 129.132C120.082 126.386 120.082 121.934 117.336 119.188C102.263 104.116 77.7372 104.116 62.6639 119.188C59.9182 121.934 59.9182 126.386 62.6643 129.132Z" fill="url(#paint0_linear_71_6947)"></path> <defs> <linearGradient id="paint0_linear_71_6947" x1="-58.2353" y1="-0.70874" x2="218.654" y2="207.778" gradientUnits="userSpaceOnUse"> <stop stop-color="white"></stop> <stop offset="1" stop-color="white" stop-opacity="0.6"></stop> </linearGradient> </defs> </svg> 