<?xml version="1.0" encoding="UTF-8"?> <svg xmlns="http://www.w3.org/2000/svg" width="171" height="180" viewBox="0 0 171 180" fill="none"> <g opacity="0.5"> <path d="M167.967 137.235C167.959 137.22 167.95 137.207 167.942 137.193L146.836 102.993C145.566 100.937 143.33 99.676 140.913 99.6553C140.893 99.655 140.872 99.655 140.852 99.655C138.458 99.655 136.227 100.873 134.934 102.89C124.077 119.813 105.484 129.917 85.1978 129.917C52.7788 129.917 26.4046 103.931 26.4046 71.9895C26.4046 40.0482 52.7788 14.0625 85.1978 14.0625C117.617 14.0625 143.991 40.0486 143.991 71.9898C143.991 72.0837 143.989 72.1765 143.987 72.2696L143.983 72.5871C143.947 76.4705 147.065 79.6475 150.948 79.6838C150.971 79.6841 150.993 79.6841 151.015 79.6841C154.867 79.6841 158.009 76.5791 158.044 72.7186L158.048 72.5062C158.051 72.3347 158.053 72.1628 158.053 71.9902C158.054 32.2942 125.371 0 85.1978 0C45.0248 0 12.3421 32.2942 12.3421 71.9898C12.3421 84.4267 15.5505 96.1372 21.1923 106.356L2.42874 137.235C-0.590125 142.203 -0.807391 148.254 1.84796 153.422C4.53214 158.645 9.65159 162.031 15.5431 162.477L26.3789 163.297L32.1984 172.316C35.3111 177.14 40.5856 180 46.3456 180C46.4236 180 46.5024 180 46.5808 179.999C52.4294 179.919 57.7239 176.905 60.7438 171.934L77.9461 143.625C80.3318 143.859 82.7509 143.979 85.1982 143.979C87.6384 143.979 90.0575 143.861 92.452 143.628L109.652 171.935C112.672 176.905 117.967 179.92 123.816 179.999C123.894 180 123.972 180 124.051 180C129.81 180 135.086 177.14 138.198 172.316L144.017 163.297L154.853 162.477C160.745 162.031 165.864 158.646 168.548 153.422C171.203 148.254 170.986 142.202 167.967 137.235ZM48.726 164.632C48.0468 165.749 46.9714 165.929 46.3906 165.937C45.801 165.952 44.7256 165.793 44.0144 164.692L36.3011 152.737C35.1079 150.887 33.1177 149.703 30.9232 149.537L16.6037 148.454C15.2474 148.351 14.6132 147.495 14.3555 146.995C14.1154 146.528 13.8081 145.587 14.4462 144.537L30.0046 118.933C38.7473 128.955 50.2314 136.579 63.2951 140.656L48.726 164.632ZM156.04 146.995C155.783 147.496 155.149 148.351 153.792 148.454L139.472 149.537C137.278 149.703 135.288 150.887 134.095 152.737L126.381 164.692C125.67 165.794 124.592 165.954 124.005 165.937C123.425 165.93 122.349 165.749 121.67 164.632L107.115 140.68C119.91 136.716 131.383 129.305 140.272 119.135L155.958 144.552C156.585 145.596 156.279 146.53 156.04 146.995ZM111.644 49.5197C114.746 51.8562 115.366 56.2648 113.029 59.3662L92.774 86.2523C90.4269 89.3679 86.8477 91.2881 82.9534 91.5205C82.6873 91.5363 82.4219 91.5441 82.1571 91.5441C78.5473 91.5441 75.0921 90.0795 72.5757 87.4568L61.9479 76.3812C59.2595 73.5792 59.3509 69.1281 62.1529 66.4397C64.9552 63.7506 69.406 63.843 72.0944 66.6446L82.091 77.0621L101.798 50.9048C104.134 47.8037 108.542 47.1829 111.644 49.5197Z" fill="url(#paint0_linear_71_6923)"></path> <path d="M167.967 137.235C167.959 137.22 167.95 137.207 167.942 137.193L146.836 102.993C145.566 100.937 143.33 99.676 140.913 99.6553C140.893 99.655 140.872 99.655 140.852 99.655C138.458 99.655 136.227 100.873 134.934 102.89C124.077 119.813 105.484 129.917 85.1978 129.917C52.7788 129.917 26.4046 103.931 26.4046 71.9895C26.4046 40.0482 52.7788 14.0625 85.1978 14.0625C117.617 14.0625 143.991 40.0486 143.991 71.9898C143.991 72.0837 143.989 72.1765 143.987 72.2696L143.983 72.5871C143.947 76.4705 147.065 79.6475 150.948 79.6838C150.971 79.6841 150.993 79.6841 151.015 79.6841C154.867 79.6841 158.009 76.5791 158.044 72.7186L158.048 72.5062C158.051 72.3347 158.053 72.1628 158.053 71.9902C158.054 32.2942 125.371 0 85.1978 0C45.0248 0 12.3421 32.2942 12.3421 71.9898C12.3421 84.4267 15.5505 96.1372 21.1923 106.356L2.42874 137.235C-0.590125 142.203 -0.807391 148.254 1.84796 153.422C4.53214 158.645 9.65159 162.031 15.5431 162.477L26.3789 163.297L32.1984 172.316C35.3111 177.14 40.5856 180 46.3456 180C46.4236 180 46.5024 180 46.5808 179.999C52.4294 179.919 57.7239 176.905 60.7438 171.934L77.9461 143.625C80.3318 143.859 82.7509 143.979 85.1982 143.979C87.6384 143.979 90.0575 143.861 92.452 143.628L109.652 171.935C112.672 176.905 117.967 179.92 123.816 179.999C123.894 180 123.972 180 124.051 180C129.81 180 135.086 177.14 138.198 172.316L144.017 163.297L154.853 162.477C160.745 162.031 165.864 158.646 168.548 153.422C171.203 148.254 170.986 142.202 167.967 137.235ZM48.726 164.632C48.0468 165.749 46.9714 165.929 46.3906 165.937C45.801 165.952 44.7256 165.793 44.0144 164.692L36.3011 152.737C35.1079 150.887 33.1177 149.703 30.9232 149.537L16.6037 148.454C15.2474 148.351 14.6132 147.495 14.3555 146.995C14.1154 146.528 13.8081 145.587 14.4462 144.537L30.0046 118.933C38.7473 128.955 50.2314 136.579 63.2951 140.656L48.726 164.632ZM156.04 146.995C155.783 147.496 155.149 148.351 153.792 148.454L139.472 149.537C137.278 149.703 135.288 150.887 134.095 152.737L126.381 164.692C125.67 165.794 124.592 165.954 124.005 165.937C123.425 165.93 122.349 165.749 121.67 164.632L107.115 140.68C119.91 136.716 131.383 129.305 140.272 119.135L155.958 144.552C156.585 145.596 156.279 146.53 156.04 146.995ZM111.644 49.5197C114.746 51.8562 115.366 56.2648 113.029 59.3662L92.774 86.2523C90.4269 89.3679 86.8477 91.2881 82.9534 91.5205C82.6873 91.5363 82.4219 91.5441 82.1571 91.5441C78.5473 91.5441 75.0921 90.0795 72.5757 87.4568L61.9479 76.3812C59.2595 73.5792 59.3509 69.1281 62.1529 66.4397C64.9552 63.7506 69.406 63.843 72.0944 66.6446L82.091 77.0621L101.798 50.9048C104.134 47.8037 108.542 47.1829 111.644 49.5197Z" fill="url(#paint1_linear_71_6923)"></path> </g> <defs> <linearGradient id="paint0_linear_71_6923" x1="-0.000203167" y1="90" x2="170.396" y2="90" gradientUnits="userSpaceOnUse"> <stop stop-color="#00F2FE"></stop> <stop offset="0.0208" stop-color="#03EFFE"></stop> <stop offset="0.2931" stop-color="#24D2FE"></stop> <stop offset="0.5538" stop-color="#3CBDFE"></stop> <stop offset="0.7956" stop-color="#4AB0FE"></stop> <stop offset="1" stop-color="#4FACFE"></stop> </linearGradient> <linearGradient id="paint1_linear_71_6923" x1="-55.1281" y1="-0.708741" x2="217.223" y2="193.419" gradientUnits="userSpaceOnUse"> <stop stop-color="white"></stop> <stop offset="1" stop-color="white" stop-opacity="0.6"></stop> </linearGradient> </defs> </svg> 