<?xml version="1.0" encoding="UTF-8"?> <svg xmlns="http://www.w3.org/2000/svg" width="180" height="180" viewBox="0 0 180 180" fill="none"> <path opacity="0.5" d="M29.1364 109.203C30.3377 110.007 31.6962 110.391 33.0402 110.391C35.3078 110.391 37.5342 109.296 38.8902 107.27C50.2516 90.2921 69.2441 80.1562 89.6948 80.1562C110.085 80.1562 129.046 90.2457 140.416 107.146C142.584 110.368 146.953 111.222 150.174 109.055C153.397 106.887 154.251 102.518 152.083 99.296C142.999 85.7939 129.975 75.831 115.092 70.5013C124.018 63.2102 129.727 52.123 129.727 39.7266C129.727 17.8211 111.906 0 90 0C68.0945 0 50.2734 17.8211 50.2734 39.7266C50.2734 52.0341 55.8991 63.0517 64.7142 70.3445C49.5984 75.6545 36.3786 85.738 27.2032 99.449C25.0436 102.676 25.9091 107.043 29.1364 109.203ZM90 14.0625C104.151 14.0625 115.664 25.5755 115.664 39.7266C115.664 53.8777 104.151 65.3906 90 65.3906C75.8489 65.3906 64.3359 53.8777 64.3359 39.7266C64.3359 25.5755 75.8489 14.0625 90 14.0625ZM118.04 124.499L107.558 132.061C105.998 133.186 105.345 135.18 105.941 137L110.162 149.235C110.341 149.78 110.409 150.313 110.386 150.82C110.237 154.106 106.118 156.354 103.098 154.175L92.616 146.611C91.8362 146.049 90.9183 145.768 90.0004 145.768C89.0824 145.768 88.1645 146.049 87.3847 146.611L76.9029 154.175C73.8823 156.354 69.744 154.106 69.6132 150.82C69.5932 150.313 69.6635 149.78 69.8418 149.235L74.0591 137C74.655 135.18 74.0022 133.186 72.4426 132.061L61.9604 124.499C58.4729 121.983 60.2652 116.016 64.5761 116.016H77.5325C79.4605 116.016 81.1691 115.273 81.7646 113.453L85.7682 101.139C86.4345 99.1037 88.2172 98.0859 90.0004 98.0859C91.7835 98.0859 93.5663 99.1037 94.2325 101.139L98.2361 113.453C98.832 115.273 100.54 116.016 102.468 116.016H115.425C119.735 116.016 121.527 121.983 118.04 124.499ZM178.157 149.108L167.675 156.67C166.115 157.795 165.463 159.789 166.058 161.61L170.28 173.845C170.458 174.39 170.526 174.922 170.504 175.43C170.354 178.716 166.236 180.964 163.215 178.785L152.733 171.221C151.953 170.658 151.035 170.377 150.118 170.377C149.2 170.377 148.282 170.658 147.502 171.221L137.02 178.785C133.999 180.964 129.861 178.716 129.73 175.43C129.71 174.922 129.781 174.389 129.959 173.845L134.176 161.61C134.772 159.789 134.119 157.795 132.56 156.67L122.078 149.108C118.59 146.592 120.382 140.625 124.693 140.625H137.65C139.578 140.625 141.286 139.883 141.882 138.062L145.885 125.748C146.552 123.713 148.334 122.695 150.118 122.695C151.901 122.695 153.683 123.713 154.35 125.748L158.353 138.062C158.949 139.883 160.657 140.625 162.585 140.625H175.542C179.852 140.625 181.645 146.592 178.157 149.108ZM57.9227 149.108L47.4405 156.67C45.881 157.795 45.2282 159.789 45.8241 161.61L50.0453 173.845C50.2235 174.39 50.2921 174.922 50.2692 175.43C50.1198 178.716 46.0012 180.964 42.9806 178.785L32.4984 171.221C31.7187 170.658 30.8007 170.377 29.8828 170.377C28.9649 170.377 28.047 170.658 27.2672 171.221L16.7854 178.785C13.7647 180.964 9.62648 178.716 9.4957 175.43C9.47566 174.922 9.54598 174.389 9.72422 173.845L13.9416 161.61C14.5375 159.789 13.8846 157.795 12.3251 156.67L1.84289 149.108C-1.64461 146.592 0.147656 140.625 4.45852 140.625H17.415C19.343 140.625 21.0516 139.883 21.6471 138.062L25.6507 125.748C26.3169 123.713 28.0997 122.695 29.8828 122.695C31.6659 122.695 33.4487 123.713 34.1149 125.748L38.1185 138.062C38.7144 139.883 40.4227 140.625 42.3506 140.625H55.3071C59.618 140.625 61.4102 146.592 57.9227 149.108Z" fill="url(#paint0_linear_71_6948)"></path> <defs> <linearGradient id="paint0_linear_71_6948" x1="-58.2353" y1="-0.707355" x2="218.262" y2="207.891" gradientUnits="userSpaceOnUse"> <stop stop-color="white"></stop> <stop offset="1" stop-color="white" stop-opacity="0.6"></stop> </linearGradient> </defs> </svg> 