<?xml version="1.0" encoding="UTF-8"?> <svg xmlns="http://www.w3.org/2000/svg" width="220" height="220" viewBox="0 0 220 220" fill="none"> <g filter="url(#filter0_d_71_4928)"> <path d="M174.723 104.723C171.809 104.723 169.447 107.085 169.447 110C169.447 142.781 142.781 169.447 110 169.447C77.2214 169.447 50.5528 142.781 50.5528 110C50.5528 77.2214 77.2214 50.5528 110 50.5528C112.914 50.5528 115.277 48.1908 115.277 45.2765C115.277 42.362 112.914 40 110 40C71.4016 40 40 71.4016 40 110C40 148.597 71.4016 180 110 180C148.597 180 180 148.597 180 110C180 107.086 177.638 104.723 174.723 104.723Z" fill="#C90318"></path> <path d="M175.997 59.1396C173.937 57.0765 170.596 57.0729 168.536 59.1308L105.237 122.263L82.3992 97.4583C80.4258 95.3162 77.0894 95.1773 74.9437 97.1504C72.7997 99.1238 72.6624 102.462 74.6358 104.606L101.194 133.448C102.166 134.506 103.527 135.119 104.963 135.149C105.001 135.151 105.039 135.151 105.075 135.151C106.47 135.151 107.812 134.597 108.8 133.612L175.987 66.602C178.051 64.5444 178.055 61.2027 175.997 59.1396Z" fill="#C90318"></path> </g> <defs> <filter id="filter0_d_71_4928" x="0" y="0" width="220" height="220" filterUnits="userSpaceOnUse" color-interpolation-filters="sRGB"> <feFlood flood-opacity="0" result="BackgroundImageFix"></feFlood> <feColorMatrix in="SourceAlpha" type="matrix" values="0 0 0 0 0 0 0 0 0 0 0 0 0 0 0 0 0 0 127 0" result="hardAlpha"></feColorMatrix> <feOffset></feOffset> <feGaussianBlur stdDeviation="5"></feGaussianBlur> <feComposite in2="hardAlpha" operator="out"></feComposite> <feColorMatrix type="matrix" values="0 0 0 0 1 0 0 0 0 0 0 0 0 0 0.152941 0 0 0 0.3 0"></feColorMatrix> <feBlend mode="normal" in2="BackgroundImageFix" result="effect1_dropShadow_71_4928"></feBlend> <feBlend mode="normal" in="SourceGraphic" in2="effect1_dropShadow_71_4928" result="shape"></feBlend> </filter> </defs> </svg> 